<svg xmlns="http://www.w3.org/2000/svg" width="640" height="224" viewBox="0, 0, 640, 224"><path d="M59.397 216.89c-25.54 0-42.172-11.853-42.172-35.557 0-75.26 119.98-167.703 178.784-167.703 10.988 0 17.52 6.518 17.52 12.74 0 23.408-39.2 49.778-59.395 53.334-.89.296-1.782.592-1.782 1.777 0 1.78 7.127 6.52 14.255 6.52 9.206 0 51.675-35.852 51.675-57.185 0-11.852-9.206-30.815-30.59-30.815C124.734 0 0 93.926 0 170.074 0 199.704 32.37 224 60.585 224c43.656 0 96.52-40.296 117.605-62.222 0 0 2.97-2.963 2.97-3.556 0-.296-.297-1.185-1.188-1.185-.594 0-1.782 1.185-1.782 1.185-29.698 29.334-69.79 58.667-118.793 58.667z"/><path d="M201.652 120.296c-1.782 0-2.376.593-2.376 2.074 0 11.852-31.48 41.778-31.48 61.926 0 10.963 10.69 17.482 16.63 17.482 9.8 0 44.845-44.148 49.597-44.148.89 0 1.188.592 1.188.89 0 4.147-2.97 9.184-2.97 16.59 0 10.075 7.426 13.927 13.96 13.927 17.82 0 46.032-27.26 46.032-27.26.89-.888 3.267-2.962 3.267-3.555 0-.296-.595-1.185-1.19-1.185-.89 0-2.078 1.185-2.078 1.185s-27.026 25.482-40.984 25.482c-2.673 0-3.86-1.185-3.86-3.26 0-7.703 10.097-21.037 10.097-26.074 0-4.74-5.346-12.444-9.504-12.444-10.096 0-51.97 53.926-62.96 53.926-1.484 0-2.672-1.482-2.672-2.963 0-14.223 31.183-48 31.183-56s-7.423-16.594-11.878-16.594z"/><path d="M292.232 158.222c-1.188 1.482-2.673 2.963-2.673 3.556 0 .592.593 1.185 1.187 1.185.297 0 .89-.593 1.485-1.185 7.128-7.408 18.116-18.963 27.026-30.52 2.97 1.483 5.345 3.26 5.345 5.927 0 9.185-15.74 23.408-15.74 40.89 0 8.295 9.504 16 18.413 16 14.552 0 45.736-32.297 45.736-32.297 1.188-1.185 2.672-2.667 2.672-3.26 0-.592-.297-1.48-1.187-1.48-.297 0-.89.592-1.485 1.184 0 0-31.184 30.815-42.172 30.815-4.158 0-6.237-3.26-6.237-6.815 0-11.26 20.492-27.26 20.492-38.518 0-7.704-15.146-10.37-24.353-14.815 6.534-8.89 11.286-17.78 11.286-24.89 0-2.074-7.128-8-11.286-8-6.83 0-20.194 9.778-20.194 20.74 0 6.816 8.91 10.37 16.037 13.334-7.722 10.667-18.116 21.333-24.353 28.148zm35.044-52.444c0 6.518-3.86 14.222-8.91 21.926-2.672-1.778-4.454-3.852-4.454-6.52 0-10.665 8.91-16.888 11.582-16.888.89 0 1.782.593 1.782 1.482z"/><path d="M404.195 176c10.394-1.48 20.79-5.63 29.4-14.222.892-.89 2.97-2.963 2.97-3.556 0-.296-.593-1.185-1.187-1.185-.594 0-1.782 1.185-1.782 1.185-8.91 8.89-19.304 13.334-29.698 14.815-1.188-13.63-9.207-17.48-9.207-30.222 0-10.963 19.305-18.667 19.305-23.11 0-3.853-6.533-10.668-10.69-10.668-5.347 0-20.493 12.148-20.493 23.407 0 5.037 1.485 8.297 2.97 12.15-7.128 8.887-12.77 13.628-12.77 13.628-1.485 1.482-2.673 2.37-2.673 3.26 0 .592.593 1.185 1.187 1.185.297 0 .89-.297 1.485-.89 3.86-3.555 7.127-6.814 13.958-14.518 1.485 4.147 2.673 8.888 2.673 16.296 0 4.148-.594 7.407-1.485 10.37-15.146-.593-24.947-3.26-31.48-3.26-2.97 0-4.158 2.075-4.158 4.15 0 7.703 9.8 26.073 24.055 26.073 14.256 0 27.62-12.742 27.62-24.89zm-33.856 11.852c-9.505 0-12.772-8.89-12.772-12.148 0-1.185.594-1.778 2.08-1.778 4.454 0 13.364 2.074 27.62 2.963-3.565 7.703-10.1 10.962-16.93 10.962z"/><path d="M459.434 117.333c-1.485 0-2.673 1.186-3.564 2.963-5.643 13.926-31.48 46.815-31.48 59.852 0 9.482 9.503 16.296 14.255 16.296 19.304 0 55.536-34.666 55.536-34.666.892-.89 3.268-2.963 3.268-3.556 0-.296-.594-1.185-1.188-1.185-.89 0-2.08 1.185-2.08 1.185s-34.45 32.593-51.377 32.593c-2.673 0-4.752-1.482-4.752-5.037 0-12.74 33.857-50.963 33.857-56.297 0-5.332-6.533-12.147-12.473-12.147zm29.4-53.926c-.593 0-1.187.297-1.187 1.186 0 7.11-11.285 21.926-11.285 29.037 0 1.185.89 1.777 1.782 1.777 1.188 0 2.97-3.26 8.612-5.037 2.673-.89 6.534-2.074 8.316-2.963 2.376-1.185 6.237-7.407 6.237-9.48 0-4.15-7.723-14.52-12.475-14.52z"/><path d="M507.842 123.26c0 12.444-21.383 47.703-21.383 61.925 0 5.63 8.91 12.445 12.77 12.445 8.91 0 66.227-40.297 66.227-74.37 0-8.593-7.127-16-9.206-16-.89 0-1.187.296-1.187 1.184 0 2.075 1.782 4.74 1.782 9.778 0 34.37-45.736 73.778-54.645 73.778-.89 0-1.485-.593-1.485-1.48 0-11.853 21.68-43.26 21.68-55.113 0-8-7.722-14.222-12.177-14.222-1.782 0-2.376.593-2.376 2.074zM580.306 158.222c8.91-21.63 20.492-33.185 25.54-33.185 1.486 0 2.377.89 2.377 3.26 0 6.814-14.552 21.036-27.917 29.925zm56.724 0s-29.104 29.926-44.844 29.926c-8.613 0-13.068-7.704-13.068-16.89 0-2.073.297-7.406.89-9.184C596.344 152 614.46 136.296 614.46 128c0-3.556-5.047-13.63-13.066-13.63-13.067 0-39.796 27.852-39.796 54.52 0 15.406 8.02 24.888 23.165 24.888 22.87 0 52.27-32 52.27-32 .89-.89 2.97-2.963 2.97-3.556 0-.296-.297-1.185-1.188-1.185-.594 0-1.782 1.185-1.782 1.185z"/></svg>